<svg width="70" height="87" viewBox="0 0 70 87" fill="none" xmlns="http://www.w3.org/2000/svg">
<path d="M63 25.5625V57.175C60.617 55.7991 57.8465 55.2481 55.1184 55.6073C52.3903 55.9664 49.8569 57.2158 47.9111 59.1615C45.9654 61.1073 44.7161 63.6407 44.3569 66.3688C43.9978 69.097 44.5489 71.8674 45.9248 74.2504C47.3007 76.6335 49.4244 78.4959 51.9667 79.5489C54.5089 80.6019 57.3276 80.7866 59.9855 80.0743C62.6434 79.3621 64.992 77.7927 66.6671 75.6096C68.3422 73.4265 69.2501 70.7517 69.25 68V5.03749C69.251 4.23522 69.0588 3.44451 68.6899 2.73211C68.3209 2.01972 67.7859 1.40658 67.1301 0.94445C66.4743 0.482325 65.717 0.184791 64.922 0.0769741C64.127 -0.0308425 63.3177 0.0542248 62.5625 0.324991L22.5625 14.6125C21.5928 14.9602 20.7542 15.5989 20.1613 16.4412C19.5683 17.2836 19.2501 18.2886 19.25 19.3187V63.4187C16.8672 62.043 14.0971 61.4919 11.3692 61.8509C8.64127 62.2099 6.10801 63.4589 4.16223 65.4042C2.21645 67.3495 0.966865 69.8825 0.607247 72.6103C0.247629 75.3381 0.798071 78.1084 2.17322 80.4915C3.54836 82.8746 5.67138 84.7375 8.21305 85.7911C10.7547 86.8448 13.573 87.0305 16.231 86.3193C18.8889 85.6081 21.2379 84.0399 22.9138 81.8577C24.5896 79.6755 25.4987 77.0014 25.5 74.25V38.9562L63 25.5687V25.5625Z" fill="#888888"/>
</svg>
