<svg width="88" height="88" viewBox="0 0 88 88" fill="none" xmlns="http://www.w3.org/2000/svg">
<path d="M72.2102 76.6289L82.1664 86.5914C82.7532 87.1782 83.5491 87.5079 84.3789 87.5079C85.2088 87.5079 86.0047 87.1782 86.5914 86.5914C87.1782 86.0047 87.5079 85.2088 87.5079 84.3789C87.5079 83.5491 87.1782 82.7532 86.5914 82.1664L5.34145 0.916448C5.0509 0.625898 4.70597 0.395421 4.32634 0.238177C3.94672 0.0809325 3.53985 3.06144e-09 3.12895 0C2.71805 -3.06144e-09 2.31117 0.0809325 1.93155 0.238177C1.55193 0.395421 1.207 0.625898 0.916448 0.916448C0.625898 1.207 0.395421 1.55193 0.238177 1.93155C0.0809325 2.31117 -3.06144e-09 2.71805 0 3.12895C3.06144e-09 3.53985 0.0809325 3.94672 0.238177 4.32634C0.395421 4.70597 0.625898 5.0509 0.916448 5.34145L25.0039 29.4227V64.1727C22.6211 62.797 19.851 62.2459 17.1231 62.6049C14.3952 62.9638 11.8619 64.2128 9.91616 66.1581C7.97038 68.1035 6.7208 70.6364 6.36118 73.3642C6.00156 76.0921 6.552 78.8623 7.92715 81.2454C9.3023 83.6286 11.4253 85.4914 13.967 86.5451C16.5087 87.5988 19.327 87.7844 21.9849 87.0732C24.6428 86.3621 26.9918 84.7938 28.6677 82.6117C30.3436 80.4295 31.2526 77.7554 31.2539 75.0039V39.7102L34.2227 38.6477L54.6289 59.0539C53.268 60.1565 52.154 61.5328 51.3591 63.0935C50.5642 64.6542 50.1062 66.3646 50.0147 68.1137C49.9233 69.8628 50.2004 71.6116 50.8282 73.2467C51.4559 74.8819 52.4203 76.3668 53.6588 77.6053C54.8973 78.8438 56.3823 79.8082 58.0174 80.436C59.6525 81.0638 61.4013 81.3409 63.1504 81.2494C64.8995 81.158 66.6099 80.6999 68.1706 79.905C69.7314 79.1101 71.1076 77.9961 72.2102 76.6352V76.6289ZM68.7539 26.3164V55.4977L75.0039 61.7477V5.79145C75.0049 4.98918 74.8128 4.19846 74.4438 3.48607C74.0748 2.77368 73.5399 2.16053 72.8841 1.69841C72.2283 1.23628 71.4709 0.938747 70.6759 0.830931C69.8809 0.723114 69.0716 0.808182 68.3164 1.07895L28.5539 15.2852L47.254 33.9915L68.7539 26.3164Z" fill="#888888"/>
</svg>
